<svg xmlns="http://www.w3.org/2000/svg" xml:space="preserve" width="512" height="512" viewBox="0 0 300 300"><path fill="#fc5061" d="M190.55 48.48c-7.8-20.58-31.92-13.54-40.6-4.56-39.78-32-69.66 28.89 0 63.76 14.37-5.53 50.38-33.98 40.6-59.2" data-original="#fc5061"/><g fill="#ffd4c3"><path d="M140.34 144.03c-4.46-2.97-11.14-6.68-18.57-8.17s-11.88 2.97-11.88 2.97c-4.46 2.97-43.08 32.68-51.99 40.11-16.97 15.22-41.27 73.36-49.02 86.16 11.29-.18 35.7-.57 46.79-.74 2.36-9.85 8.77-41.76 22.28-49.02 7.43-2.97 14.11.74 23.03 3.71 8.91 2.97 16.34 4.46 23.77 5.94 7.43 1.49 11.14 8.17 17.08 8.17s9.66-3.71 5.2-9.66c-4.72-7.17-18.03-13.07-32.06-21.79 0 0-.01 0-.01-.01-18.26-16.51-6.87-37.17 5.33-46.53 8.55-4 12.85 2.84 20.8 5.94 16.45 4.99 6.07-13.07-.74-17.08z" data-original="#ffd4c3"/><path d="M261.41 207.16c-5.94-10.4-10.4-20.8-19.31-28.22-8.91-7.43-47.54-37.14-51.99-40.11-10.21-9.86-38.78 5.79-40.11 19.31.19 4.92 4.91 4.2 8.91 2.97 4.46-1.49 7.43-4.46 10.4-5.94 2.97-1.49 7.43-1.49 10.4 0s11.88 11.88 13.37 17.83c1.35 5.42 3.95 19.5-8.04 28.7 0 .01-.01.01-.01.01-14.07 8.75-27.28 14.61-32.06 21.79-4.46 5.94-.74 9.66 5.2 9.66s9.66-6.68 17.08-8.17c7.43-1.49 14.86-2.97 23.77-5.94s15.6-6.68 23.03-3.71c13.45 7.19 20.03 39.26 22.28 49.02 11.03.17 35.57.56 46.79.74 0 0-23.77-47.54-29.71-57.93z" data-original="#ffd4c3"/></g><path fill="#ffa4a4" d="M148.17 161.53c-10.52 3.09-17.12-11.87-27.88-6.36-12.21 9.36-23.6 30.01-5.33 46.53-22.82-10.5-15.44-47.25 6.48-54.06 10.92-1.99 19.72 7.12 26.74 13.89zm-1.14 61.97c4.46 5.94.74 9.66-5.2 9.66s-9.66-6.68-17.08-8.17-14.85-2.97-23.77-5.94c-8.91-2.97-15.6-6.68-23.03-3.71-13.44 7.19-20.03 39.27-22.28 49.02l-18.93.3c6.85-15.43 12.69-47.54 26.71-55.54 9.99-5.75 23.13-8.52 33.93-3.62 1.84 1.06 9.34 4 11.1 5.18 8.6 5.85 14.22 2.79 24.04 6.19 4.4 1.53 8.6 4.09 13.1 4.92.51.56.97 1.13 1.41 1.72zm4.8-61.97c10.52 3.09 17.12-11.87 27.88-6.36 12.21 9.36 23.6 30.01 5.33 46.53 22.82-10.5 15.44-47.25-6.48-54.06-10.69-2.3-21.03 8.23-26.74 13.89zm1.14 61.97c-4.46 5.94-.74 9.66 5.2 9.66s9.66-6.68 17.08-8.17 14.85-2.97 23.77-5.94c8.91-2.97 15.6-6.68 23.03-3.71 13.44 7.19 20.03 39.27 22.28 49.02l18.93.3c-6.85-15.43-12.69-47.54-26.71-55.54-9.99-5.75-23.13-8.52-33.93-3.62-1.84 1.06-9.34 4-11.1 5.18-8.6 5.85-14.22 2.79-24.04 6.19-4.4 1.53-8.6 4.09-13.1 4.92-.51.56-.97 1.13-1.41 1.72z" data-original="#ffa4a4"/><path fill="#de354e" d="M190.55 48.48c9.76 25.38-26.27 53.53-40.5 59.2-.23.04-5.64-2.55-13.39-7.92l.14-.2c4.44-.69 8.4-3.12 12.22-5.5 13.5-7.76 26.08-18.5 29.25-34.41 2.12-8.12 2.04-17.92-4.12-24.27v-.09c7.42 1 13.69 5.21 16.39 13.19z" data-original="#de354e"/><path fill="#fff" d="M124.85 41.53c11.18-2.05 14.46 14.48 3.4 16.85-11.06 2.1-14.34-14.57-3.4-16.85" data-original="#ffffff"/><path fill="#3f3436" d="M135.75 101.06c9.12 5.89 12.49 8.38 14.97 8.07 16.04-6.46 51.44-35.57 41.35-61.17-6.67-17.49-26.87-19.05-42.07-6.1-38.87-29.58-67.52 24.16-14.25 59.2m-24.78-52.07c2.73-8.61 11.32-13.19 20.79-12.25 3.75.31 9.69 1.96 16.75 8.07.51.46.89.74 1.54.71 40.41-31.22 65.33 27.29-.06 60.41-20.95-9.92-46.89-35.08-39.03-56.94zM262.8 206.37c-5.85-10.22-10.5-21.05-19.68-28.66-9.04-7.54-47.13-36.81-52.01-40.13-10.52-9.89-35.37 3.31-41.11 15.26-6.83-11.31-14.69-14.82-27.91-18.55-7.56-1.51-12.36 2.51-13.2 3.29-4.88 3.32-42.97 32.6-52.01 40.13-17.41 15.71-41.22 72.98-49.43 86.67-.54 1.02.29 2.38 1.46 2.32l46.79-.74c2.46 1.04 5.13-21.26 8.84-27.62 3.37-6.85 7.27-18.59 14.02-21.51 6.69-2.88 14.59 1.36 21.92 3.75 9.01 3 16.6 4.52 23.96 5.99 6.78 1.23 10.41 8.04 17.4 8.2 3.89 0 6.94-1.46 8.17-3.9 1.23 2.44 4.28 3.9 8.17 3.9 6.99-.17 10.62-6.97 17.4-8.2 7.35-1.47 14.95-2.99 23.95-5.99 7.34-2.38 15.24-6.63 21.92-3.75 12.15 6.46 19.33 38.5 21.31 47.87.16.73.79 1.25 1.54 1.27l46.79.74a1.61 1.61 0 0 0 1.46-2.32c-.24-.48-23.86-47.69-29.75-58.01zm-115.66 23.05c-6.89 7.11-14.25-5.03-22.09-6-7.25-1.45-14.75-2.95-23.57-5.89-8.07-2.65-16.08-7.02-24.13-3.68-13.46 7.18-19.84 35.3-22.98 48.93l-42.88.68c6.93-13.73 24.59-49.08 31.88-61.64 4.44-8.16 8.63-15.88 15.55-21.65 9.3-7.76 47.57-37.11 52.1-40.21.03-.03 2.87-2.8 7.75-2.8 12.6 1.65 26.93 9.16 29.62 20.98-.18 3.41-3.55 2.29-6.81 1.45-7.89-3.22-12.62-10.23-22.02-5.85-15.64 10.14-22.54 36.96-5.58 49.24 14.16 9.57 33.49 16.09 33.15 26.44zm2.86-3.96c-8.73-19.61-50.7-18.37-41.53-52.07 1.33-5.34 9.91-15.47 12.53-16.78 2.51-1.26 6.45-1.26 8.97 0 5.37 3.11 13.38 10.03 20.03 5.6 6.65 4.42 14.66-2.48 20.03-5.6 2.51-1.26 6.45-1.26 8.97 0 2.62 1.31 11.2 11.44 12.53 16.78 9.18 33.69-32.8 32.46-41.53 52.07m95.62 37.32c-3.17-13.7-9.47-41.66-22.98-48.93-8.05-3.34-16.06 1.03-24.13 3.68-8.82 2.94-16.32 4.44-23.58 5.89-6.84 1.01-10.64 7.6-16.77 8.14-6.87.07-6.68-4.66-2.6-8.71 3.01-4.64 17.93-12.15 30.43-19.87 16.98-12.31 10.05-39.1-5.58-49.24-9.38-4.38-14.14 2.63-22.02 5.85-3.25.85-6.65 1.92-6.81-1.45 2.82-11.58 14.74-17.59 26.94-20.71 6.44-1.29 10.28 2.38 10.44 2.53 4.53 3.08 42.81 32.46 52.1 40.21 6.93 5.77 11.12 13.48 15.55 21.65 7.3 12.52 25.01 48 31.88 61.64l-42.88-.68z" data-original="#3f3436"/></svg>